<?xml version="1.0" encoding="iso-8859-1"?>
<!-- Generator: Adobe Illustrator 18.1.1, SVG Export Plug-In . SVG Version: 6.00 Build 0)  -->
<svg version="1.1" id="Capa_1" xmlns="http://www.w3.org/2000/svg" xmlns:xlink="http://www.w3.org/1999/xlink" x="0px" y="0px"
	 viewBox="0 0 282.75 282.75" style="enable-background:new 0 0 282.75 282.75;" xml:space="preserve">
<g>
	<path style="fill:#010002;" d="M122.102,164.235c-5.526-2.355-13.135-8.469-17.557-12.537L8.817,63.613
		c-4.422-4.068-8.224-12.553-5.27-17.791c2.399-4.259,6.908-8.202,15.371-8.202h244.975c0,0,10.715,0.234,15.735,8.806
		c3.04,5.183-1.072,13.712-5.532,17.742l-105.05,94.895C169.046,159.063,148.775,175.592,122.102,164.235z M19.499,245.12
		c0,0-19.499-1.73-19.499-18.852V86.381c0-6.005,3.465-7.457,7.745-3.236l41.418,40.875c4.281,4.221,5.842,12.124,3.492,17.655
		l-29.779,70.077c-2.35,5.532-1.256,6.173,2.442,1.441l41.603-53.243c3.699-4.737,10.497-5.526,15.18-1.768l18.428,14.789
		c4.688,3.758,12.912,8.877,18.602,10.791c13.505,4.525,37.464,9.709,52.688-3.41l26.809-22.404
		c4.612-3.851,11.286-3.095,14.914,1.697l44.018,58.133c3.628,4.792,4.716,4.172,2.431-1.387l-30.421-74.026
		c-2.284-5.559-0.674-13.489,3.595-17.72l41.854-41.473c4.27-4.226,7.729-2.785,7.729,3.22v141.1c0,0-1.159,17.639-20.587,17.639
		H19.499V245.12z"/>
</g>
<g>
</g>
<g>
</g>
<g>
</g>
<g>
</g>
<g>
</g>
<g>
</g>
<g>
</g>
<g>
</g>
<g>
</g>
<g>
</g>
<g>
</g>
<g>
</g>
<g>
</g>
<g>
</g>
<g>
</g>
</svg>
